{
  "accessors": [
    {
      "bufferView": 1,
      "componentType": 5126,
      "count": 3472,
      "max": [
        81.944198608398438,
        -242.45399475097656,
        -43.626499176025391
      ],
      "min": [
        -89.087501525878906,
        -288.037109375,
        -95.523002624511719
      ],
      "type": "VEC3"
    },
    {
      "bufferView": 1,
      "byteOffset": 41664,
      "componentType": 5126,
      "count": 3472,
      "max": [
        0.99991303682327271,
        0.99652761220932007,
        0.98994743824005127
      ],
      "min": [
        -0.99992775917053223,
        -0.99141973257064819,
        -0.98996990919113159
      ],
      "type": "VEC3"
    },
    {
      "bufferView": 0,
      "componentType": 5125,
      "count": 9954,
      "max": [
        3471
      ],
      "min": [
        0
      ],
      "type": "SCALAR"
    },
    {
      "bufferView": 1,
      "byteOffset": 83328,
      "componentType": 5126,
      "count": 24381,
      "max": [
        131.99989318847656,
        -76,
        -7.6598000526428223
      ],
      "min": [
        -107.96299743652344,
        -357,
        -114.48739624023438
      ],
      "type": "VEC3"
    },
    {
      "bufferView": 1,
      "byteOffset": 375900,
      "componentType": 5126,
      "count": 24381,
      "max": [
        1,
        1,
        0.99989968538284302
      ],
      "min": [
        -1,
        -0.99999308586120605,
        -1
      ],
      "type": "VEC3"
    },
    {
      "bufferView": 0,
      "byteOffset": 39816,
      "componentType": 5125,
      "count": 85515,
      "max": [
        24380
      ],
      "min": [
        0
      ],
      "type": "SCALAR"
    },
    {
      "bufferView": 1,
      "byteOffset": 668472,
      "componentType": 5126,
      "count": 1181,
      "max": [
        -92.260398864746094,
        -287.99929809570312,
        -67.999000549316406
      ],
      "min": [
        -144.59080505371094,
        -339.1748046875,
        -72.000396728515625
      ],
      "type": "VEC3"
    },
    {
      "bufferView": 1,
      "byteOffset": 682644,
      "componentType": 5126,
      "count": 1181,
      "max": [
        0.99867886304855347,
        0.99995839595794678,
        0.99602758884429932
      ],
      "min": [
        -0.99995940923690796,
        -0.99864864349365234,
        -0.99628371000289917
      ],
      "type": "VEC3"
    },
    {
      "bufferView": 0,
      "byteOffset": 381876,
      "componentType": 5125,
      "count": 3399,
      "max": [
        1180
      ],
      "min": [
        0
      ],
      "type": "SCALAR"
    },
    {
      "bufferView": 1,
      "byteOffset": 696816,
      "componentType": 5126,
      "count": 3261,
      "max": [
        28.783300399780273,
        -314.78829956054688,
        -73.644096374511719
      ],
      "min": [
        8.9947996139526367,
        -327.06060791015625,
        -94.7333984375
      ],
      "type": "VEC3"
    },
    {
      "bufferView": 1,
      "byteOffset": 735948,
      "componentType": 5126,
      "count": 3261,
      "max": [
        1,
        1,
        1
      ],
      "min": [
        -1,
        -0.99973094463348389,
        -0.99962329864501953
      ],
      "type": "VEC3"
    },
    {
      "bufferView": 0,
      "byteOffset": 395472,
      "componentType": 5125,
      "count": 13473,
      "max": [
        3260
      ],
      "min": [
        0
      ],
      "type": "SCALAR"
    },
    {
      "bufferView": 1,
      "byteOffset": 775080,
      "componentType": 5126,
      "count": 492,
      "max": [
        26.773099899291992,
        -322.0076904296875,
        -89.257499694824219
      ],
      "min": [
        11.323200225830078,
        -335.23348999023438,
        -92.928001403808594
      ],
      "type": "VEC3"
    },
    {
      "bufferView": 1,
      "byteOffset": 780984,
      "componentType": 5126,
      "count": 492,
      "max": [
        0.93153572082519531,
        0.84599334001541138,
        0.99963086843490601
      ],
      "min": [
        -0.93104040622711182,
        -1,
        -0.99921613931655884
      ],
      "type": "VEC3"
    },
    {
      "bufferView": 0,
      "byteOffset": 449364,
      "componentType": 5125,
      "count": 1629,
      "max": [
        491
      ],
      "min": [
        0
      ],
      "type": "SCALAR"
    },
    {
      "bufferView": 1,
      "byteOffset": 786888,
      "componentType": 5126,
      "count": 10968,
      "max": [
        121.99990081787109,
        -0,
        -33.000400543212891
      ],
      "min": [
        -92.372901916503906,
        -76,
        -197
      ],
      "type": "VEC3"
    },
    {
      "bufferView": 1,
      "byteOffset": 918504,
      "componentType": 5126,
      "count": 10968,
      "max": [
        1,
        1,
        1
      ],
      "min": [
        -1,
        -1,
        -1
      ],
      "type": "VEC3"
    },
    {
      "bufferView": 0,
      "byteOffset": 455880,
      "componentType": 5125,
      "count": 38739,
      "max": [
        10967
      ],
      "min": [
        0
      ],
      "type": "SCALAR"
    },
    {
      "bufferView": 1,
      "byteOffset": 1050120,
      "componentType": 5126,
      "count": 37389,
      "max": [
        85.946098327636719,
        -89.531303405761719,
        -40.996200561523438
      ],
      "min": [
        -89.512001037597656,
        -321.25601196289062,
        -100.69270324707031
      ],
      "type": "VEC3"
    },
    {
      "bufferView": 1,
      "byteOffset": 1498788,
      "componentType": 5126,
      "count": 37389,
      "max": [
        1,
        0.99983024597167969,
        0.9998747706413269
      ],
      "min": [
        -1,
        -0.99997454881668091,
        -0.99999415874481201
      ],
      "type": "VEC3"
    },
    {
      "bufferView": 0,
      "byteOffset": 610836,
      "componentType": 5125,
      "count": 148821,
      "max": [
        37388
      ],
      "min": [
        0
      ],
      "type": "SCALAR"
    },
    {
      "bufferView": 1,
      "byteOffset": 1947456,
      "componentType": 5126,
      "count": 3702,
      "max": [
        42.811000823974609,
        -236.83799743652344,
        -45.939998626708984
      ],
      "min": [
        -4.3499999046325684,
        -255.72099304199219,
        -90.508003234863281
      ],
      "type": "VEC3"
    },
    {
      "bufferView": 1,
      "byteOffset": 1991880,
      "componentType": 5126,
      "count": 3702,
      "max": [
        1,
        0.9946439266204834,
        0.99065285921096802
      ],
      "min": [
        -1,
        -0.99856710433959961,
        -0.99049949645996094
      ],
      "type": "VEC3"
    },
    {
      "bufferView": 0,
      "byteOffset": 1206120,
      "componentType": 5125,
      "count": 11133,
      "max": [
        3701
      ],
      "min": [
        0
      ],
      "type": "SCALAR"
    },
    {
      "bufferView": 1,
      "byteOffset": 2036304,
      "componentType": 5126,
      "count": 6087,
      "max": [
        43.055000305175781,
        -237.15199279785156,
        -43.055400848388672
      ],
      "min": [
        -4.0560002326965332,
        -256.81100463867188,
        -96.764297485351562
      ],
      "type": "VEC3"
    },
    {
      "bufferView": 1,
      "byteOffset": 2109348,
      "componentType": 5126,
      "count": 6087,
      "max": [
        0.99996334314346313,
        0.99879676103591919,
        0.99961012601852417
      ],
      "min": [
        -0.99998170137405396,
        -0.9902799129486084,
        -0.99537253379821777
      ],
      "type": "VEC3"
    },
    {
      "bufferView": 0,
      "byteOffset": 1250652,
      "componentType": 5125,
      "count": 25863,
      "max": [
        6086
      ],
      "min": [
        0
      ],
      "type": "SCALAR"
    }
  ],
  "asset": {
    "generator": "Sketchfab (OSG glTF plugin)",
    "version": "2.0"
  },
  "bufferViews": [
    {
      "buffer": 0,
      "byteLength": 1354104,
      "byteOffset": 0,
      "name": "floatBufferViews",
      "target": 34963
    },
    {
      "buffer": 0,
      "byteLength": 2182392,
      "byteOffset": 1354104,
      "byteStride": 12,
      "name": "floatBufferViews",
      "target": 34962
    }
  ],
  "buffers": [
    {
      "byteLength": 3536496,
      "uri": "scene.bin"
    }
  ],
  "materials": [
    {
      "doubleSided": true,
      "emissiveFactor": [
        0,
        0,
        0
      ],
      "name": "color_-10393750",
      "pbrMetallicRoughness": {
        "baseColorFactor": [
          0.38039200000000001,
          0.403922,
          0.415686,
          1
        ],
        "metallicFactor": 0,
        "roughnessFactor": 1
      }
    },
    {
      "doubleSided": true,
      "emissiveFactor": [
        0,
        0,
        0
      ],
      "name": "color_-13947343",
      "pbrMetallicRoughness": {
        "baseColorFactor": [
          0.168627,
          0.180392,
          0.19215699999999999,
          1
        ],
        "metallicFactor": 0,
        "roughnessFactor": 1
      }
    },
    {
      "doubleSided": true,
      "emissiveFactor": [
        0,
        0,
        0
      ],
      "name": "color_-16746839",
      "pbrMetallicRoughness": {
        "baseColorFactor": [
          0,
          0.46274500000000002,
          0.66274500000000003,
          1
        ],
        "metallicFactor": 0,
        "roughnessFactor": 1
      }
    },
    {
      "doubleSided": true,
      "emissiveFactor": [
        0,
        0,
        0
      ],
      "name": "color_-1916779",
      "pbrMetallicRoughness": {
        "baseColorFactor": [
          0.88627500000000003,
          0.75294099999999997,
          0.584314,
          1
        ],
        "metallicFactor": 0,
        "roughnessFactor": 1
      }
    },
    {
      "doubleSided": true,
      "emissiveFactor": [
        0,
        0,
        0
      ],
      "name": "color_-328966",
      "pbrMetallicRoughness": {
        "baseColorFactor": [
          0.98039200000000004,
          0.98039200000000004,
          0.98039200000000004,
          1
        ],
        "metallicFactor": 0,
        "roughnessFactor": 1
      }
    },
    {
      "doubleSided": true,
      "emissiveFactor": [
        0,
        0,
        0
      ],
      "name": "color_-4208692",
      "pbrMetallicRoughness": {
        "baseColorFactor": [
          0.74902000000000002,
          0.78039199999999997,
          0.80000000000000004,
          1
        ],
        "metallicFactor": 0,
        "roughnessFactor": 1
      }
    },
    {
      "doubleSided": true,
      "emissiveFactor": [
        0,
        0,
        0
      ],
      "name": "color_-5788239",
      "pbrMetallicRoughness": {
        "baseColorFactor": [
          0.65490199999999998,
          0.67843100000000001,
          0.69411800000000001,
          1
        ],
        "metallicFactor": 0,
        "roughnessFactor": 1
      }
    },
    {
      "doubleSided": true,
      "emissiveFactor": [
        0,
        0,
        0
      ],
      "name": "color_-687329",
      "pbrMetallicRoughness": {
        "baseColorFactor": [
          0.96078399999999997,
          0.51372600000000002,
          0.121569,
          1
        ],
        "metallicFactor": 0,
        "roughnessFactor": 1
      }
    },
    {
      "doubleSided": true,
      "emissiveFactor": [
        0,
        0,
        0
      ],
      "name": "color_-8934",
      "pbrMetallicRoughness": {
        "baseColorFactor": [
          1,
          0.86666699999999997,
          0.101961,
          1
        ],
        "metallicFactor": 0,
        "roughnessFactor": 1
      }
    }
  ],
  "meshes": [
    {
      "primitives": [
        {
          "attributes": {
            "NORMAL": 1,
            "POSITION": 0
          },
          "indices": 2,
          "material": 0,
          "mode": 4
        }
      ]
    },
    {
      "primitives": [
        {
          "attributes": {
            "NORMAL": 4,
            "POSITION": 3
          },
          "indices": 5,
          "material": 1,
          "mode": 4
        }
      ]
    },
    {
      "primitives": [
        {
          "attributes": {
            "NORMAL": 7,
            "POSITION": 6
          },
          "indices": 8,
          "material": 2,
          "mode": 4
        }
      ]
    },
    {
      "primitives": [
        {
          "attributes": {
            "NORMAL": 10,
            "POSITION": 9
          },
          "indices": 11,
          "material": 3,
          "mode": 4
        }
      ]
    },
    {
      "primitives": [
        {
          "attributes": {
            "NORMAL": 13,
            "POSITION": 12
          },
          "indices": 14,
          "material": 4,
          "mode": 4
        }
      ]
    },
    {
      "primitives": [
        {
          "attributes": {
            "NORMAL": 16,
            "POSITION": 15
          },
          "indices": 17,
          "material": 5,
          "mode": 4
        }
      ]
    },
    {
      "primitives": [
        {
          "attributes": {
            "NORMAL": 19,
            "POSITION": 18
          },
          "indices": 20,
          "material": 6,
          "mode": 4
        }
      ]
    },
    {
      "primitives": [
        {
          "attributes": {
            "NORMAL": 22,
            "POSITION": 21
          },
          "indices": 23,
          "material": 7,
          "mode": 4
        }
      ]
    },
    {
      "primitives": [
        {
          "attributes": {
            "NORMAL": 25,
            "POSITION": 24
          },
          "indices": 26,
          "material": 8,
          "mode": 4
        }
      ]
    }
  ],
  "nodes": [
    {
      "children": [
        1
      ],
      "name": "RootNode (gltf orientation matrix)",
      "rotation": [
        -0.70710678118654746,
        -0,
        -0,
        0.70710678118654757
      ]
    },
    {
      "children": [
        2
      ],
      "matrix": [
        1,
        0,
        0,
        0,
        0,
        0,
        -1,
        0,
        0,
        1,
        0,
        0,
        0,
        -76.170097351074219,
        -280.82989501953125,
        1
      ],
      "name": "RootNode (model correction matrix)"
    },
    {
      "children": [
        12
      ],
      "name": "tinker.obj.cleaner.materialmerger.gles"
    },
    {
      "mesh": 0,
      "name": ""
    },
    {
      "mesh": 1,
      "name": ""
    },
    {
      "mesh": 2,
      "name": ""
    },
    {
      "mesh": 3,
      "name": ""
    },
    {
      "mesh": 4,
      "name": ""
    },
    {
      "mesh": 5,
      "name": ""
    },
    {
      "mesh": 6,
      "name": ""
    },
    {
      "mesh": 7,
      "name": ""
    },
    {
      "mesh": 8,
      "name": ""
    },
    {
      "children": [
        3,
        4,
        5,
        6,
        7,
        8,
        9,
        10,
        11
      ],
      "name": "Geode"
    }
  ],
  "scene": 0,
  "scenes": [
    {
      "name": "OSG_Scene",
      "nodes": [
        0
      ]
    }
  ]
}

